<?xml version="1.0" standalone="no"?><!DOCTYPE svg PUBLIC "-//W3C//DTD SVG 1.1//EN" "http://www.w3.org/Graphics/SVG/1.1/DTD/svg11.dtd"><svg xmlns:xlink="http://www.w3.org/1999/xlink" version="1.1" style="font-family:'lucida grande', 'lucida sans unicode', arial, helvetica, sans-serif;font-size:12px;" xmlns="http://www.w3.org/2000/svg" width="600" height="400"><desc>Created with Highcharts 4.2.7</desc><defs><clipPath id="highcharts-9"><rect x="1" y="1" width="552" height="287"></rect></clipPath></defs><rect x="36" y="36" width="554" height="289" fill="#ffffff"></rect><path fill="rgb(255, 255, 255)" fill-opacity=" .5" d="M 36 325.5 L 590 325.5 590 277.5 36 277.5"></path><path fill="rgb(255, 255, 255)" fill-opacity=" .5" d="M 36 229.5 L 590 229.5 590 181.5 36 181.5"></path><path fill="rgb(255, 255, 255)" fill-opacity=" .5" d="M 36 132.5 L 590 132.5 590 84.5 36 84.5"></path><g class="highcharts-grid"></g><g class="highcharts-grid"><path fill="none" d="M 36 325.5 L 590 325.5" stroke="#C0C0C0" stroke-width="1" opacity="1"></path><path fill="none" d="M 36 277.5 L 590 277.5" stroke="#C0C0C0" stroke-width="1" opacity="1"></path><path fill="none" d="M 36 229.5 L 590 229.5" stroke="#C0C0C0" stroke-width="1" opacity="1"></path><path fill="none" d="M 36 181.5 L 590 181.5" stroke="#C0C0C0" stroke-width="1" opacity="1"></path><path fill="none" d="M 36 132.5 L 590 132.5" stroke="#C0C0C0" stroke-width="1" opacity="1"></path><path fill="none" d="M 36 84.5 L 590 84.5" stroke="#C0C0C0" stroke-width="1" opacity="1"></path><path fill="none" d="M 36 35.5 L 590 35.5" stroke="#C0C0C0" stroke-width="1" opacity="1"></path></g><rect x="36" y="36" width="554" height="289" stroke="#026FC1" stroke-width="2" fill="none"></rect><g class="highcharts-axis"><path fill="none" d="M 81.5 325 L 81.5 335" stroke="#C0D0E0" stroke-width="1" opacity="1"></path><path fill="none" d="M 127.5 325 L 127.5 335" stroke="#C0D0E0" stroke-width="1" opacity="1"></path><path fill="none" d="M 174.5 325 L 174.5 335" stroke="#C0D0E0" stroke-width="1" opacity="1"></path><path fill="none" d="M 220.5 325 L 220.5 335" stroke="#C0D0E0" stroke-width="1" opacity="1"></path><path fill="none" d="M 266.5 325 L 266.5 335" stroke="#C0D0E0" stroke-width="1" opacity="1"></path><path fill="none" d="M 312.5 325 L 312.5 335" stroke="#C0D0E0" stroke-width="1" opacity="1"></path><path fill="none" d="M 358.5 325 L 358.5 335" stroke="#C0D0E0" stroke-width="1" opacity="1"></path><path fill="none" d="M 404.5 325 L 404.5 335" stroke="#C0D0E0" stroke-width="1" opacity="1"></path><path fill="none" d="M 450.5 325 L 450.5 335" stroke="#C0D0E0" stroke-width="1" opacity="1"></path><path fill="none" d="M 497.5 325 L 497.5 335" stroke="#C0D0E0" stroke-width="1" opacity="1"></path><path fill="none" d="M 543.5 325 L 543.5 335" stroke="#C0D0E0" stroke-width="1" opacity="1"></path><path fill="none" d="M 590.5 325 L 590.5 335" stroke="#C0D0E0" stroke-width="1" opacity="1"></path><path fill="none" d="M 35.5 325 L 35.5 335" stroke="#C0D0E0" stroke-width="1" opacity="1"></path><path fill="none" d="M 36 325.5 L 590 325.5" stroke="#C0D0E0" stroke-width="1"></path></g><g class="highcharts-axis"><path fill="none" d="M 36 325.5 L 26 325.5" stroke="#C0D0E0" stroke-width="1" opacity="1"></path><path fill="none" d="M 36 277.5 L 26 277.5" stroke="#C0D0E0" stroke-width="1" opacity="1"></path><path fill="none" d="M 36 229.5 L 26 229.5" stroke="#C0D0E0" stroke-width="1" opacity="1"></path><path fill="none" d="M 36 181.5 L 26 181.5" stroke="#C0D0E0" stroke-width="1" opacity="1"></path><path fill="none" d="M 36 132.5 L 26 132.5" stroke="#C0D0E0" stroke-width="1" opacity="1"></path><path fill="none" d="M 36 84.5 L 26 84.5" stroke="#C0D0E0" stroke-width="1" opacity="1"></path><path fill="none" d="M 36 35.5 L 26 35.5" stroke="#C0D0E0" stroke-width="1" opacity="1"></path></g><g class="highcharts-series-group"><g class="highcharts-series highcharts-series-0" transform="translate(36,36) scale(1 1)" clip-path="url(#highcharts-9)"><rect x="11.5" y="289.5" width="23" height="0" stroke="#FFFFFF" stroke-width="1" fill="#50B432" rx="0" ry="0"></rect><rect x="57.5" y="289.5" width="23" height="0" stroke="#FFFFFF" stroke-width="1" fill="#ED561B" rx="0" ry="0"></rect><rect x="103.5" y="289.5" width="23" height="0" stroke="#FFFFFF" stroke-width="1" fill="#DDDF00" rx="0" ry="0"></rect><rect x="150.5" y="289.5" width="23" height="0" stroke="#FFFFFF" stroke-width="1" fill="#24CBE5" rx="0" ry="0"></rect><rect x="196.5" y="289.5" width="23" height="0" stroke="#FFFFFF" stroke-width="1" fill="#64E572" rx="0" ry="0"></rect><rect x="242.5" y="289.5" width="23" height="0" stroke="#FFFFFF" stroke-width="1" fill="#FF9655" rx="0" ry="0"></rect><rect x="288.5" y="289.5" width="23" height="0" stroke="#FFFFFF" stroke-width="1" fill="#FFF263" rx="0" ry="0"></rect><rect x="334.5" y="289.5" width="23" height="0" stroke="#FFFFFF" stroke-width="1" fill="#6AF9C4" rx="0" ry="0"></rect><rect x="380.5" y="289.5" width="23" height="0" stroke="#FFFFFF" stroke-width="1" fill="#2F7ED8" rx="0" ry="0"></rect><rect x="427.5" y="173.5" width="23" height="116" stroke="#FFFFFF" stroke-width="1" fill="#0D233A" rx="0" ry="0"></rect><rect x="473.5" y="58.5" width="23" height="231" stroke="#FFFFFF" stroke-width="1" fill="#8BBC21" rx="0" ry="0"></rect><rect x="519.5" y="289.5" width="23" height="0" stroke="#FFFFFF" stroke-width="1" fill="#910000" rx="0" ry="0"></rect></g><g class="highcharts-markers highcharts-series-0" transform="translate(36,36) scale(1 1)" clip-path="none"></g><g class="highcharts-series highcharts-series-1" transform="translate(36,36) scale(1 1)" clip-path="url(#highcharts-9)"></g><g class="highcharts-markers highcharts-series-1" transform="translate(36,36) scale(1 1)" clip-path="none"></g></g><text x="300" text-anchor="middle" class="highcharts-title" style="color:#000000;font-size:10px;font-family:'arial', sans-serif;text-transform:none;fill:#000000;width:536px;" y="17"><tspan>Monthly Absorbtion</tspan></text><g class="highcharts-data-labels highcharts-series-0" transform="translate(36,36) scale(1 1)" opacity="1"><g style="cursor:pointer;" transform="translate(15,268)"><text x="5" style="font-size:10px;font-weight:bold;font-family:'arial', sans-serif;color:#000000;text-shadow:0 0 6px #ffffff, 0 0 3px #ffffff;fill:#000000;text-rendering:geometricprecision;" y="15"><tspan>0</tspan></text></g><g style="cursor:pointer;" transform="translate(61,268)"><text x="5" style="font-size:10px;font-weight:bold;font-family:'arial', sans-serif;color:#000000;text-shadow:0 0 6px #ffffff, 0 0 3px #ffffff;fill:#000000;text-rendering:geometricprecision;" y="15"><tspan>0</tspan></text></g><g style="cursor:pointer;" transform="translate(107,268)"><text x="5" style="font-size:10px;font-weight:bold;font-family:'arial', sans-serif;color:#000000;text-shadow:0 0 6px #ffffff, 0 0 3px #ffffff;fill:#000000;text-rendering:geometricprecision;" y="15"><tspan>0</tspan></text></g><g style="cursor:pointer;" transform="translate(154,268)"><text x="5" style="font-size:10px;font-weight:bold;font-family:'arial', sans-serif;color:#000000;text-shadow:0 0 6px #ffffff, 0 0 3px #ffffff;fill:#000000;text-rendering:geometricprecision;" y="15"><tspan>0</tspan></text></g><g style="cursor:pointer;" transform="translate(200,268)"><text x="5" style="font-size:10px;font-weight:bold;font-family:'arial', sans-serif;color:#000000;text-shadow:0 0 6px #ffffff, 0 0 3px #ffffff;fill:#000000;text-rendering:geometricprecision;" y="15"><tspan>0</tspan></text></g><g style="cursor:pointer;" transform="translate(246,268)"><text x="5" style="font-size:10px;font-weight:bold;font-family:'arial', sans-serif;color:#000000;text-shadow:0 0 6px #ffffff, 0 0 3px #ffffff;fill:#000000;text-rendering:geometricprecision;" y="15"><tspan>0</tspan></text></g><g style="cursor:pointer;" transform="translate(292,268)"><text x="5" style="font-size:10px;font-weight:bold;font-family:'arial', sans-serif;color:#000000;text-shadow:0 0 6px #ffffff, 0 0 3px #ffffff;fill:#000000;text-rendering:geometricprecision;" y="15"><tspan>0</tspan></text></g><g style="cursor:pointer;" transform="translate(338,268)"><text x="5" style="font-size:10px;font-weight:bold;font-family:'arial', sans-serif;color:#000000;text-shadow:0 0 6px #ffffff, 0 0 3px #ffffff;fill:#000000;text-rendering:geometricprecision;" y="15"><tspan>0</tspan></text></g><g style="cursor:pointer;" transform="translate(384,268)"><text x="5" style="font-size:10px;font-weight:bold;font-family:'arial', sans-serif;color:#000000;text-shadow:0 0 6px #ffffff, 0 0 3px #ffffff;fill:#000000;text-rendering:geometricprecision;" y="15"><tspan>0</tspan></text></g><g style="cursor:pointer;" transform="translate(428,152)"><text x="5" style="font-size:10px;font-weight:bold;font-family:'arial', sans-serif;color:#000000;text-shadow:0 0 6px #ffffff, 0 0 3px #ffffff;fill:#000000;text-rendering:geometricprecision;" y="15"><tspan>24</tspan></text></g><g style="cursor:pointer;" transform="translate(474,37)"><text x="5" style="font-size:10px;font-weight:bold;font-family:'arial', sans-serif;color:#000000;text-shadow:0 0 6px #ffffff, 0 0 3px #ffffff;fill:#000000;text-rendering:geometricprecision;" y="15"><tspan>48</tspan></text></g><g style="cursor:pointer;" transform="translate(523,268)"><text x="5" style="font-size:10px;font-weight:bold;font-family:'arial', sans-serif;color:#000000;text-shadow:0 0 6px #ffffff, 0 0 3px #ffffff;fill:#000000;text-rendering:geometricprecision;" y="15"><tspan>0</tspan></text></g></g><g class="highcharts-data-labels highcharts-series-1" transform="translate(36,36) scale(1 1)" opacity="1"></g><g class="highcharts-legend" transform="translate(259,356)"><g><g><g class="highcharts-legend-item" transform="translate(8,3)"><text x="21" style="color:#333;font-size:9pt;font-weight:normal;cursor:pointer;font-family:'lucida grande','lucida sans unicode',arial,helvetica,sans-serif;text-transform:none;fill:#333;" text-anchor="start" y="15"><tspan>Series 1</tspan></text><rect x="0" y="4" width="16" height="12" fill="#CCC"></rect></g></g></g></g><g class="highcharts-axis-labels highcharts-xaxis-labels"><text x="59.08333333333333" style="color:#000000;cursor:default;font-size:10px;font-family:'arial', sans-serif;text-transform:none;font-weight:normal;fill:#000000;" text-anchor="middle" transform="translate(0,0)" y="343" opacity="1">January</text><text x="105.24999999999999" style="color:#000000;cursor:default;font-size:10px;font-family:'arial', sans-serif;text-transform:none;font-weight:normal;fill:#000000;" text-anchor="middle" transform="translate(0,0)" y="343" opacity="1">February</text><text x="151.41666666666666" style="color:#000000;cursor:default;font-size:10px;font-family:'arial', sans-serif;text-transform:none;font-weight:normal;fill:#000000;" text-anchor="middle" transform="translate(0,0)" y="343" opacity="1">March</text><text x="197.58333333333331" style="color:#000000;cursor:default;font-size:10px;font-family:'arial', sans-serif;text-transform:none;font-weight:normal;fill:#000000;" text-anchor="middle" transform="translate(0,0)" y="343" opacity="1">April</text><text x="243.75000000000003" style="color:#000000;cursor:default;font-size:10px;font-family:'arial', sans-serif;text-transform:none;font-weight:normal;fill:#000000;" text-anchor="middle" transform="translate(0,0)" y="343" opacity="1">May</text><text x="289.9166666666667" style="color:#000000;cursor:default;font-size:10px;font-family:'arial', sans-serif;text-transform:none;font-weight:normal;fill:#000000;" text-anchor="middle" transform="translate(0,0)" y="343" opacity="1">June</text><text x="336.0833333333333" style="color:#000000;cursor:default;font-size:10px;font-family:'arial', sans-serif;text-transform:none;font-weight:normal;fill:#000000;" text-anchor="middle" transform="translate(0,0)" y="343" opacity="1">July</text><text x="382.25" style="color:#000000;cursor:default;font-size:10px;font-family:'arial', sans-serif;text-transform:none;font-weight:normal;fill:#000000;" text-anchor="middle" transform="translate(0,0)" y="343" opacity="1">August</text><text x="428.41666666666663" style="color:#000000;cursor:default;font-size:10px;font-family:'arial', sans-serif;text-transform:none;font-weight:normal;fill:#000000;width:46.166666666666664;text-overflow:ellipsis;" text-anchor="middle" transform="translate(0,0)" y="343" opacity="1"><tspan>Septem…</tspan><title>September</title></text><text x="474.5833333333333" style="color:#000000;cursor:default;font-size:10px;font-family:'arial', sans-serif;text-transform:none;font-weight:normal;fill:#000000;" text-anchor="middle" transform="translate(0,0)" y="343" opacity="1">October</text><text x="520.7499999999999" style="color:#000000;cursor:default;font-size:10px;font-family:'arial', sans-serif;text-transform:none;font-weight:normal;fill:#000000;width:46.166666666666664;text-overflow:ellipsis;" text-anchor="middle" transform="translate(0,0)" y="343" opacity="1"><tspan>Novem…</tspan><title>November</title></text><text x="566.9166666666666" style="color:#000000;cursor:default;font-size:10px;font-family:'arial', sans-serif;text-transform:none;font-weight:normal;fill:#000000;width:46.166666666666664;text-overflow:ellipsis;" text-anchor="middle" transform="translate(0,0)" y="343" opacity="1"><tspan>Decem…</tspan><title>December</title></text></g><g class="highcharts-axis-labels highcharts-yaxis-labels"><text x="21" style="color:#000000;cursor:default;font-size:10px;font-family:'arial', sans-serif;text-transform:none;font-weight:normal;fill:#000000;width:188px;text-overflow:clip;" text-anchor="end" transform="translate(0,0)" y="329" opacity="1"><tspan>0</tspan></text><text x="21" style="color:#000000;cursor:default;font-size:10px;font-family:'arial', sans-serif;text-transform:none;font-weight:normal;fill:#000000;width:188px;text-overflow:clip;" text-anchor="end" transform="translate(0,0)" y="281" opacity="1"><tspan>10</tspan></text><text x="21" style="color:#000000;cursor:default;font-size:10px;font-family:'arial', sans-serif;text-transform:none;font-weight:normal;fill:#000000;width:188px;text-overflow:clip;" text-anchor="end" transform="translate(0,0)" y="233" opacity="1"><tspan>20</tspan></text><text x="21" style="color:#000000;cursor:default;font-size:10px;font-family:'arial', sans-serif;text-transform:none;font-weight:normal;fill:#000000;width:188px;text-overflow:clip;" text-anchor="end" transform="translate(0,0)" y="185" opacity="1"><tspan>30</tspan></text><text x="21" style="color:#000000;cursor:default;font-size:10px;font-family:'arial', sans-serif;text-transform:none;font-weight:normal;fill:#000000;width:188px;text-overflow:clip;" text-anchor="end" transform="translate(0,0)" y="137" opacity="1"><tspan>40</tspan></text><text x="21" style="color:#000000;cursor:default;font-size:10px;font-family:'arial', sans-serif;text-transform:none;font-weight:normal;fill:#000000;width:188px;text-overflow:clip;" text-anchor="end" transform="translate(0,0)" y="89" opacity="1"><tspan>50</tspan></text><text x="21" style="color:#000000;cursor:default;font-size:10px;font-family:'arial', sans-serif;text-transform:none;font-weight:normal;fill:#000000;width:188px;text-overflow:clip;" text-anchor="end" transform="translate(0,0)" y="40" opacity="1"><tspan>60</tspan></text></g><g class="highcharts-tooltip" display="none" style="cursor:default;padding:0;pointer-events:none;white-space:nowrap;" transform="translate(0,0)"><path fill="none" d="M 3.5 0.5 L 13.5 0.5 C 16.5 0.5 16.5 0.5 16.5 3.5 L 16.5 13.5 C 16.5 16.5 16.5 16.5 13.5 16.5 L 3.5 16.5 C 0.5 16.5 0.5 16.5 0.5 13.5 L 0.5 3.5 C 0.5 0.5 0.5 0.5 3.5 0.5"  stroke="black" stroke-opacity="0.049999999999999996" stroke-width="5" transform="translate(1, 1)"></path><path fill="none" d="M 3.5 0.5 L 13.5 0.5 C 16.5 0.5 16.5 0.5 16.5 3.5 L 16.5 13.5 C 16.5 16.5 16.5 16.5 13.5 16.5 L 3.5 16.5 C 0.5 16.5 0.5 16.5 0.5 13.5 L 0.5 3.5 C 0.5 0.5 0.5 0.5 3.5 0.5"  stroke="black" stroke-opacity="0.09999999999999999" stroke-width="3" transform="translate(1, 1)"></path><path fill="none" d="M 3.5 0.5 L 13.5 0.5 C 16.5 0.5 16.5 0.5 16.5 3.5 L 16.5 13.5 C 16.5 16.5 16.5 16.5 13.5 16.5 L 3.5 16.5 C 0.5 16.5 0.5 16.5 0.5 13.5 L 0.5 3.5 C 0.5 0.5 0.5 0.5 3.5 0.5"  stroke="black" stroke-opacity="0.15" stroke-width="1" transform="translate(1, 1)"></path><path fill="rgb(255, 255, 255)" fill-opacity=" 0.85" d="M 3.5 0.5 L 13.5 0.5 C 16.5 0.5 16.5 0.5 16.5 3.5 L 16.5 13.5 C 16.5 16.5 16.5 16.5 13.5 16.5 L 3.5 16.5 C 0.5 16.5 0.5 16.5 0.5 13.5 L 0.5 3.5 C 0.5 0.5 0.5 0.5 3.5 0.5"></path><text x="8" style="font-size:12px;color:#000000;fill:#000000;" y="20"></text></g><text x="590" text-anchor="end" style="cursor:pointer;color:#909090;font-size:9px;fill:#909090;" y="395">meta-chart.com</text></svg>